<mxfile host="app.diagrams.net" modified="2022-07-05T14:10:59.562Z" agent="5.0 (Windows NT 6.3; Win64; x64) AppleWebKit/537.36 (KHTML, like Gecko) Chrome/103.0.0.0 Safari/537.36" etag="Ct938lx9tesUqyMwg5PW" version="20.0.4" type="github">
  <diagram id="KcGknGqKmKyWg18o0lej" name="Page-1">
    <mxGraphModel dx="4133" dy="1831" grid="1" gridSize="10" guides="1" tooltips="1" connect="1" arrows="1" fold="1" page="1" pageScale="1" pageWidth="827" pageHeight="1169" math="0" shadow="0">
      <root>
        <mxCell id="0" />
        <mxCell id="1" parent="0" />
        <mxCell id="utxhRAPre-JuJmBlIImx-1" value="" style="whiteSpace=wrap;html=1;" vertex="1" parent="1">
          <mxGeometry x="1800" y="1390" width="3000" height="4000" as="geometry" />
        </mxCell>
      </root>
    </mxGraphModel>
  </diagram>
</mxfile>
